# xmcd
#
# Track frame offsets:
#	150
#	12233
#	24442
#	44832
#	58979
#	75576
#	80197
#	94569
#	103367
#	110548
#	117019
#	120827
#	136289
#	142123
#	153014
#	169646
#	183711
#
# Disc length: 2777 seconds
#
# Revision: 0
# Processed by: cddbd v1.5.2PL0 Copyright (c) Steve Scherf et al.
# Submitted via: EasyCDDAExtractor 15.2.5.1
#
DISCID=e30ad711
DTITLE=V/A New Zeland Werwolf Sounds from stinky Mangnetic - Wolf Party
DYEAR=2014
DGENRE=
TTITLE0=Boss Christ - Swamp Wolf
TTITLE1=Slim Chant - Do the Dogone
TTITLE2=Full Fucking moon - Litany of the Oceans Part1
TTITLE3=Bad Evil - Mermaids ride UFOs
TTITLE4=The Damned Evangelist - La Maldicion del Lobo
TTITLE5=Delany Davidson - Foggy Harbour
TTITLE6=Mr Slackjaw - In a Wolfmans Heart
TTITLE7=Voodoo Savage and his savages - Beat it with a Rock
TTITLE8=Knife fight - Woof woof woof
TTITLE9=Tape Man - Thirteen
TTITLE10=Golden Axe - Dognapped
TTITLE11=Double ya D - Wolf fight tonight
TTITLE12=Sheville - Deep Space 2000
TTITLE13=The Don Kings - The Claw
TTITLE14=The Wrongdoings - Moonlight
TTITLE15=Pro Drag - Hot Dog
TTITLE16=The Chandelieres - Diamond
EXTD=
EXTT0=
EXTT1=
EXTT2=
EXTT3=
EXTT4=
EXTT5=
EXTT6=
EXTT7=
EXTT8=
EXTT9=
EXTT10=
EXTT11=
EXTT12=
EXTT13=
EXTT14=
EXTT15=
EXTT16=
PLAYORDER=
